/* XPM */
static char * choria_xpm[] = {
"32 32 794 2",
"  	c None",
". 	c #666666",
"+ 	c #5B5B5A",
"@ 	c #2C302B",
"# 	c #0D140C",
"$ 	c #020A01",
"% 	c #020B01",
"& 	c #051A04",
"* 	c #0D440B",
"= 	c #136210",
"- 	c #136511",
"; 	c #125D0F",
"> 	c #0C3F0A",
", 	c #041503",
"' 	c #1D1F1D",
") 	c #040B03",
"! 	c #020C02",
"~ 	c #89C188",
"{ 	c #A7D1A6",
"] 	c #ABD4AA",
"^ 	c #A5D0A3",
"/ 	c #7EBA7C",
"( 	c #171916",
"_ 	c #5A5B5A",
": 	c #040C03",
"< 	c #062105",
"[ 	c #70B26E",
"} 	c #7CB97A",
"| 	c #7BB879",
"1 	c #7BB778",
"2 	c #5FA65D",
"3 	c #030C03",
"4 	c #2B312B",
"5 	c #082E07",
"6 	c #59A357",
"7 	c #5BA459",
"8 	c #5FA55C",
"9 	c #5FA45B",
"0 	c #5FA35B",
"a 	c #55854A",
"b 	c #495530",
"c 	c #494426",
"d 	c #4C532C",
"e 	c #527640",
"f 	c #5B9A56",
"g 	c #519D4F",
"h 	c #051C04",
"i 	c #0D160D",
"j 	c #020D02",
"k 	c #082D07",
"l 	c #3F903D",
"m 	c #458839",
"n 	c #696B2C",
"o 	c #78652B",
"p 	c #75632B",
"q 	c #705F29",
"r 	c #6C5C29",
"s 	c #5C5124",
"t 	c #524220",
"u 	c #715D38",
"v 	c #75613D",
"w 	c #564428",
"x 	c #402D17",
"y 	c #3C411C",
"z 	c #407E35",
"A 	c #3F8C3B",
"B 	c #3F8E3C",
"C 	c #3B8D38",
"D 	c #020E02",
"E 	c #082A07",
"F 	c #2C8129",
"G 	c #2E832C",
"H 	c #2D7F2B",
"I 	c #3A5F22",
"J 	c #6F4E21",
"K 	c #B7853C",
"L 	c #D7AB5D",
"M 	c #D8B470",
"N 	c #C29959",
"O 	c #986D2F",
"P 	c #805B29",
"Q 	c #7C5826",
"R 	c #835B27",
"S 	c #AD7B3F",
"T 	c #8D6D43",
"U 	c #4E351F",
"V 	c #4F3919",
"W 	c #59451E",
"X 	c #4E5220",
"Y 	c #3D6324",
"Z 	c #2B7926",
"` 	c #051E05",
" .	c #020F02",
"..	c #031002",
"+.	c #092A07",
"@.	c #1D7219",
"#.	c #226A18",
"$.	c #3E4716",
"%.	c #63431F",
"&.	c #C1863B",
"*.	c #DB9F43",
"=.	c #CE9D44",
"-.	c #B39445",
";.	c #C5AC63",
">.	c #B8A469",
",.	c #8C6B33",
"'.	c #A56B30",
").	c #CD8647",
"!.	c #B48454",
"~.	c #8A6139",
"{.	c #976D34",
"].	c #A57F3A",
"^.	c #8B632D",
"/.	c #60381B",
"(.	c #315718",
"_.	c #071E05",
":.	c #031203",
"<.	c #091404",
"[.	c #2A320E",
"}.	c #3D631A",
"|.	c #3D601A",
"1.	c #454B19",
"2.	c #4C3016",
"3.	c #63371D",
"4.	c #AC6A36",
"5.	c #BF8640",
"6.	c #B1863A",
"7.	c #D0AB4C",
"8.	c #F8D173",
"9.	c #E7C064",
"0.	c #9C742F",
"a.	c #925A29",
"b.	c #BA783E",
"c.	c #B27D41",
"d.	c #CD9B48",
"e.	c #F1CA65",
"f.	c #F3C75B",
"g.	c #E9AD49",
"h.	c #7D5426",
"i.	c #2A5112",
"j.	c #071D05",
"k.	c #041403",
"l.	c #271E0B",
"m.	c #6B4E23",
"n.	c #95733C",
"o.	c #A0793D",
"p.	c #AC7B3C",
"q.	c #815F34",
"r.	c #745635",
"s.	c #7F5C35",
"t.	c #75562E",
"u.	c #705427",
"v.	c #AF8136",
"w.	c #D99841",
"x.	c #E6A84B",
"y.	c #AE833C",
"z.	c #684523",
"A.	c #92602F",
"B.	c #C99140",
"C.	c #EABD5F",
"D.	c #F5D783",
"E.	c #E1AF58",
"F.	c #BB7D34",
"G.	c #56391A",
"H.	c #1C430E",
"I.	c #062005",
"J.	c #031403",
"K.	c #241D0D",
"L.	c #8C6B39",
"M.	c #CE9D53",
"N.	c #C9984A",
"O.	c #D09847",
"P.	c #D09C51",
"Q.	c #BC9C63",
"R.	c #C6B077",
"S.	c #C0AA71",
"T.	c #937943",
"U.	c #855B28",
"V.	c #BF7E38",
"W.	c #D09141",
"X.	c #A27834",
"Y.	c #795528",
"Z.	c #B27A3A",
"`.	c #DEA44E",
" +	c #E9C781",
".+	c #D9B677",
"++	c #B17335",
"@+	c #613517",
"#+	c #2D1F11",
"$+	c #1C380E",
"%+	c #072105",
"&+	c #041703",
"*+	c #031704",
"=+	c #26200B",
"-+	c #6C4E1E",
";+	c #956222",
">+	c #A8732C",
",+	c #BB8234",
"'+	c #B98635",
")+	c #B88F43",
"!+	c #DFC283",
"~+	c #FFE7AA",
"{+	c #D2B76D",
"]+	c #835E25",
"^+	c #A46A2D",
"/+	c #98652C",
"(+	c #775226",
"_+	c #A46E30",
":+	c #BA803A",
"<+	c #BC853F",
"[+	c #A97741",
"}+	c #754921",
"|+	c #643816",
"1+	c #552915",
"2+	c #533119",
"3+	c #323011",
"4+	c #0C2106",
"5+	c #041704",
"6+	c #091905",
"7+	c #0E1C05",
"8+	c #2D230D",
"9+	c #5E4319",
"0+	c #71491B",
"a+	c #82531F",
"b+	c #946024",
"c+	c #9F6F2D",
"d+	c #D29F4C",
"e+	c #E7B560",
"f+	c #EFC474",
"g+	c #DDBA67",
"h+	c #88662B",
"i+	c #7B4D25",
"j+	c #794D24",
"k+	c #402C18",
"l+	c #674321",
"m+	c #754523",
"n+	c #6D3A1D",
"o+	c #4B2511",
"p+	c #3D2111",
"q+	c #4F2C17",
"r+	c #472015",
"s+	c #5A2D1A",
"t+	c #472A15",
"u+	c #21260B",
"v+	c #041904",
"w+	c #221F0A",
"x+	c #422C12",
"y+	c #513A1A",
"z+	c #765524",
"A+	c #674C25",
"B+	c #694C25",
"C+	c #764F21",
"D+	c #6C3D18",
"E+	c #AB7134",
"F+	c #D1933D",
"G+	c #E3A549",
"H+	c #E9B657",
"I+	c #A57E37",
"J+	c #734421",
"K+	c #9F602C",
"L+	c #5D3E20",
"M+	c #342417",
"N+	c #3D2616",
"O+	c #422716",
"P+	c #3B2516",
"Q+	c #53301A",
"R+	c #472715",
"S+	c #4A2516",
"T+	c #803F1E",
"U+	c #71321B",
"V+	c #3D2711",
"W+	c #0F1F07",
"X+	c #051B04",
"Y+	c #041804",
"Z+	c #2F230D",
"`+	c #764C1D",
" @	c #9C702E",
".@	c #947335",
"+@	c #A1874C",
"@@	c #907D55",
"#@	c #887A60",
"$@	c #422B1F",
"%@	c #6A3614",
"&@	c #B37531",
"*@	c #D7983F",
"=@	c #E8AC4B",
"-@	c #BB8F41",
";@	c #63401E",
">@	c #864B27",
",@	c #894E2C",
"'@	c #44281C",
")@	c #3E2818",
"!@	c #422917",
"~@	c #2E1E13",
"{@	c #331E12",
"]@	c #452111",
"^@	c #804A20",
"/@	c #A26324",
"(@	c #85381E",
"_@	c #502615",
":@	c #1B2309",
"<@	c #061F05",
"[@	c #061E05",
"}@	c #2C240C",
"|@	c #724317",
"1@	c #8B581E",
"2@	c #8F672A",
"3@	c #B08941",
"4@	c #AB8F5D",
"5@	c #D1B889",
"6@	c #8A7B5D",
"7@	c #482814",
"8@	c #80471F",
"9@	c #B27433",
"0@	c #CE9040",
"a@	c #C98E42",
"b@	c #784C23",
"c@	c #592C1B",
"d@	c #7A3F28",
"e@	c #51291D",
"f@	c #422216",
"g@	c #321A10",
"h@	c #29160C",
"i@	c #502F13",
"j@	c #84532B",
"k@	c #A7733C",
"l@	c #BB7F32",
"m@	c #8E4421",
"n@	c #432213",
"o@	c #142408",
"p@	c #051D04",
"q@	c #201D09",
"r@	c #43240E",
"s@	c #45230A",
"t@	c #523111",
"u@	c #543918",
"v@	c #9A7B49",
"w@	c #BC8C45",
"x@	c #BA9251",
"y@	c #795833",
"z@	c #5F341A",
"A@	c #814721",
"B@	c #A36730",
"C@	c #BF7F39",
"D@	c #895927",
"E@	c #4A2716",
"F@	c #5E2F1F",
"G@	c #472419",
"H@	c #2E1810",
"I@	c #2B150C",
"J@	c #4B2711",
"K@	c #8A5422",
"L@	c #C38A4D",
"M@	c #CE9351",
"N@	c #BA7C37",
"O@	c #84361F",
"P@	c #3C1D11",
"Q@	c #122508",
"R@	c #072506",
"S@	c #072606",
"T@	c #1B1B08",
"U@	c #20140A",
"V@	c #37200C",
"W@	c #47280D",
"X@	c #352110",
"Y@	c #8E6836",
"Z@	c #AF7A34",
"`@	c #AD7934",
" #	c #916734",
".#	c #5C3B20",
"+#	c #592B12",
"@#	c #814920",
"##	c #985E2A",
"$#	c #7F4F23",
"%#	c #442613",
"&#	c #391D13",
"*#	c #1F100B",
"=#	c #44210F",
"-#	c #6B3816",
";#	c #985E29",
">#	c #B57B40",
",#	c #B37839",
"'#	c #904F23",
")#	c #6B2316",
"!#	c #351B0F",
"~#	c #142809",
"{#	c #082907",
"]#	c #062205",
"^#	c #1E1E09",
"/#	c #261A0B",
"(#	c #462C12",
"_#	c #3E220C",
":#	c #37230F",
"<#	c #573717",
"[#	c #9B662A",
"}#	c #AA7433",
"|#	c #90612E",
"1#	c #624021",
"2#	c #3E2010",
"3#	c #582E14",
"4#	c #6E3E1B",
"5#	c #683D1C",
"6#	c #392110",
"7#	c #1C0F09",
"8#	c #2A160D",
"9#	c #412011",
"0#	c #673115",
"a#	c #7E431A",
"b#	c #925722",
"c#	c #975A22",
"d#	c #8A4D1C",
"e#	c #6D2B12",
"f#	c #5A1D11",
"g#	c #24200C",
"h#	c #0E2E08",
"i#	c #092E08",
"j#	c #1B2109",
"k#	c #2A1D0D",
"l#	c #4A3117",
"m#	c #281408",
"n#	c #3B230D",
"o#	c #4A2D14",
"p#	c #7E4D20",
"q#	c #966129",
"r#	c #9B662E",
"s#	c #875929",
"t#	c #5D3A1C",
"u#	c #442411",
"v#	c #4D2812",
"w#	c #452711",
"x#	c #24150A",
"y#	c #1B0E08",
"z#	c #3B1C0E",
"A#	c #582A13",
"B#	c #673113",
"C#	c #723A15",
"D#	c #7E4316",
"E#	c #7C3F12",
"F#	c #6C2D0F",
"G#	c #691E11",
"H#	c #511B10",
"I#	c #1A2E0A",
"J#	c #0A3A09",
"K#	c #0A3308",
"L#	c #093208",
"M#	c #0F340A",
"N#	c #1C220B",
"O#	c #412C15",
"P#	c #3F230F",
"Q#	c #2D1608",
"R#	c #553214",
"S#	c #5D3515",
"T#	c #74471E",
"U#	c #96632B",
"V#	c #98642C",
"W#	c #825123",
"X#	c #432711",
"Y#	c #231109",
"Z#	c #2F170B",
"`#	c #2D160B",
" $	c #2E140B",
".$	c #3F1D0D",
"+$	c #582A10",
"@$	c #602D10",
"#$	c #602B0D",
"$$	c #6B2F0D",
"%$	c #6E2F0E",
"&$	c #682111",
"*$	c #5D1C13",
"=$	c #381D0E",
"-$	c #123E0B",
";$	c #0B400A",
">$	c #0B3B0A",
",$	c #0A3809",
"'$	c #0C400B",
")$	c #113E0B",
"!$	c #29240E",
"~$	c #3D2614",
"{$	c #29160B",
"]$	c #42230E",
"^$	c #3F1F0C",
"/$	c #44230D",
"($	c #6A401B",
"_$	c #895625",
":$	c #71441C",
"<$	c #3C210F",
"[$	c #2A1209",
"}$	c #3C1A0C",
"|$	c #4A2513",
"1$	c #562D16",
"2$	c #592D11",
"3$	c #623214",
"4$	c #633012",
"5$	c #60290E",
"6$	c #63270D",
"7$	c #62220E",
"8$	c #5E1F12",
"9$	c #4A2313",
"0$	c #322A10",
"a$	c #104C0D",
"b$	c #0D470C",
"c$	c #092F08",
"d$	c #0B3C0A",
"e$	c #0F4E0D",
"f$	c #1B2D0B",
"g$	c #3A2513",
"h$	c #3D2410",
"i$	c #391B0B",
"j$	c #462610",
"k$	c #42240F",
"l$	c #391D0D",
"m$	c #39180B",
"n$	c #471C0C",
"o$	c #623E23",
"p$	c #94734C",
"q$	c #8B6034",
"r$	c #6D3B14",
"s$	c #683616",
"t$	c #642F13",
"u$	c #5D270F",
"v$	c #511E0C",
"w$	c #45170B",
"x$	c #431F10",
"y$	c #4F2F15",
"z$	c #372211",
"A$	c #1E410E",
"B$	c #0F4D0D",
"C$	c #0E4C0D",
"D$	c #10560D",
"E$	c #15510E",
"F$	c #263310",
"G$	c #4A2E17",
"H$	c #281308",
"I$	c #361607",
"J$	c #381A0A",
"K$	c #2B1408",
"L$	c #220F05",
"M$	c #301207",
"N$	c #4A1D0C",
"O$	c #613314",
"P$	c #865C2F",
"Q$	c #9E7646",
"R$	c #815228",
"S$	c #673413",
"T$	c #612E13",
"U$	c #612B0F",
"V$	c #6D3718",
"W$	c #7F4E28",
"X$	c #845529",
"Y$	c #774720",
"Z$	c #86471F",
"`$	c #643818",
" %	c #3A2B10",
".%	c #184B0E",
"+%	c #0E4B0D",
"@%	c #0A3709",
"#%	c #0F510D",
"$%	c #136611",
"%%	c #1A4C0F",
"&%	c #3D2713",
"*%	c #3C2110",
"=%	c #260C03",
"-%	c #3D1505",
";%	c #371506",
">%	c #391708",
",%	c #3E1808",
"'%	c #50240D",
")%	c #714016",
"!%	c #7F4B1C",
"~%	c #6E3E18",
"{%	c #552A10",
"]%	c #46200C",
"^%	c #6B4224",
"/%	c #A4794E",
"(%	c #C69B5B",
"_%	c #D3A254",
":%	c #C88F45",
"<%	c #AA6E2D",
"[%	c #934A20",
"}%	c #74361A",
"|%	c #4A2612",
"1%	c #2D4511",
"2%	c #10570E",
"3%	c #136B11",
"4%	c #1B6A17",
"5%	c #2A3912",
"6%	c #583619",
"7%	c #402110",
"8%	c #2D0F04",
"9%	c #361405",
"0%	c #3C1706",
"a%	c #3E1708",
"b%	c #51260C",
"c%	c #633711",
"d%	c #4E290D",
"e%	c #3F1C0A",
"f%	c #552B10",
"g%	c #835121",
"h%	c #BF955C",
"i%	c #E4C387",
"j%	c #E2B35E",
"k%	c #D19745",
"l%	c #B87B3A",
"m%	c #9C5F29",
"n%	c #79421E",
"o%	c #461F13",
"p%	c #411C12",
"q%	c #4C2D14",
"r%	c #2B390F",
"s%	c #19370C",
"t%	c #11580F",
"u%	c #166E14",
"v%	c #1C741A",
"w%	c #216A1C",
"x%	c #333E16",
"y%	c #623717",
"z%	c #582C11",
"A%	c #441E09",
"B%	c #331204",
"C%	c #3C1506",
"D%	c #431B08",
"E%	c #301908",
"F%	c #311809",
"G%	c #441C08",
"H%	c #693916",
"I%	c #A36D36",
"J%	c #BC854B",
"K%	c #BC844C",
"L%	c #BD8240",
"M%	c #BA7D3B",
"N%	c #B17337",
"O%	c #B3753B",
"P%	c #C18444",
"Q%	c #B4773A",
"R%	c #93552A",
"S%	c #67211B",
"T%	c #521C13",
"U%	c #401D0F",
"V%	c #1B2F0A",
"W%	c #1B7319",
"X%	c #21781F",
"Y%	c #247B22",
"Z%	c #287123",
"`%	c #313D15",
" &	c #3A2410",
".&	c #42230D",
"+&	c #341506",
"@&	c #321205",
"#&	c #2A1206",
"$&	c #27160A",
"%&	c #311707",
"&&	c #481E09",
"*&	c #683617",
"=&	c #7F4B26",
"-&	c #8E562E",
";&	c #995B33",
">&	c #B1713C",
",&	c #CF954F",
"'&	c #DDAC67",
")&	c #E0AC62",
"!&	c #DEA152",
"~&	c #C88641",
"{&	c #C4853C",
"]&	c #99552B",
"^&	c #672019",
"/&	c #521613",
"(&	c #2C1B0D",
"_&	c #143913",
":&	c #0C420B",
"<&	c #10540E",
"[&	c #197117",
"}&	c #287E26",
"|&	c #2B7327",
"1&	c #293E16",
"2&	c #2C280F",
"3&	c #2D1B0C",
"4&	c #231409",
"5&	c #2B190B",
"6&	c #251409",
"7&	c #240E04",
"8&	c #421D09",
"9&	c #562911",
"0&	c #673317",
"a&	c #7F4421",
"b&	c #A26338",
"c&	c #CB9156",
"d&	c #E1AC64",
"e&	c #E4AF64",
"f&	c #D69847",
"g&	c #BA7A31",
"h&	c #A56423",
"i&	c #A96823",
"j&	c #995A20",
"k&	c #6A2D17",
"l&	c #571913",
"m&	c #34190D",
"n&	c #30482F",
"o&	c #156D13",
"p&	c #297F27",
"q&	c #2D822B",
"r&	c #2F812B",
"s&	c #30742A",
"t&	c #2E3C17",
"u&	c #3F2712",
"v&	c #3B1E0D",
"w&	c #1A0A04",
"x&	c #251208",
"y&	c #3B1D0C",
"z&	c #51230C",
"A&	c #672E10",
"B&	c #864923",
"C&	c #B57745",
"D&	c #D29757",
"E&	c #CC8D48",
"F&	c #B57536",
"G&	c #9D5C23",
"H&	c #9F571B",
"I&	c #905118",
"J&	c #613B13",
"K&	c #482411",
"L&	c #411E0E",
"M&	c #3C1D0C",
"N&	c #351D0C",
"O&	c #5B605B",
"P&	c #0B350A",
"Q&	c #20771D",
"R&	c #2C7E2A",
"S&	c #33551E",
"T&	c #4C2E16",
"U&	c #3A1C0C",
"V&	c #1E0F06",
"W&	c #2B190C",
"X&	c #321609",
"Y&	c #471B07",
"Z&	c #703613",
"`&	c #9B5E2D",
" *	c #B57741",
".*	c #B0713B",
"+*	c #9C5A2C",
"@*	c #8D4A1D",
"#*	c #7E3E15",
"$*	c #653310",
"%*	c #351C0B",
"&*	c #250E08",
"**	c #36100C",
"=*	c #3F100F",
"-*	c #41140F",
";*	c #3D190D",
">*	c #192419",
",*	c #0C380B",
"'*	c #237620",
")*	c #2D5019",
"!*	c #502E15",
"~*	c #552C12",
"{*	c #38200C",
"]*	c #2B1508",
"^*	c #290E04",
"/*	c #4B2008",
"(*	c #7E441A",
"_*	c #995B28",
":*	c #935324",
"<*	c #86451C",
"[*	c #894318",
"}*	c #2C130A",
"|*	c #0D0904",
"1*	c #1E0B08",
"2*	c #2E0B0B",
"3*	c #421B0E",
"4*	c #421010",
"5*	c #451111",
"6*	c #42140F",
"7*	c #5C615B",
"8*	c #324F30",
"9*	c #174A16",
"0*	c #0F4F0D",
"a*	c #1A6415",
"b*	c #273310",
"c*	c #452B14",
"d*	c #553317",
"e*	c #3A170A",
"f*	c #2C0C04",
"g*	c #441807",
"h*	c #6C2F0E",
"i*	c #7A3911",
"j*	c #783810",
"k*	c #7D3911",
"l*	c #5D2B0F",
"m*	c #0C0706",
"n*	c #1C0A08",
"o*	c #370B0E",
"p*	c #572B15",
"q*	c #7A4F1A",
"r*	c #5C2C14",
"s*	c #461211",
". . + @ # $ % & * = - - - - - - - - - - - - - ; > , $ # @ + . . ",
". ' ) $ $ ! ; ~ { { ] { { { ] { { { ] { { { { { ^ / * % $ ) ( . ",
"_ : $ $ % < [ } } } } } } } } } | 1 1 1 | } } } } } 2 , $ $ 3 _ ",
"4 % % % ! 5 6 7 2 8 9 0 0 0 0 2 a b c d e f 2 2 7 7 g h % % % 4 ",
"i ! ! j j k l l l m n o p q r s t u v w x y z A A B C h ! ! ! i ",
"! j j D D E F G H I J K L M N O P Q R S T U V W X Y Z ` D j j ! ",
"j j D  ...+.@.@.#.$.%.&.*.=.-.;.>.,.'.).!.~.{.].^./.(._. .D j j ",
"D  ...:.<.[.}.|.1.2.3.4.5.6.7.8.9.0.a.b.c.d.e.f.g.h.i.j.:... .D ",
" ...:.k.l.m.n.o.p.q.r.s.t.u.v.w.x.y.z.A.B.C.D.E.F.G.H.I.J.:... .",
"..:.J., K.L.M.N.O.P.Q.R.S.T.U.V.W.X.Y.Z.`. +.+++@+#+$+%+, J.:...",
":., &+*+=+-+;+>+,+'+)+!+~+{+]+^+/+(+_+:+<+[+}+|+1+2+3+4+5+&+, :.",
"J.&+6+7+8+9+0+a+b+c+d+e+f+g+h+i+j+k+l+m+n+o+p+q+r+s+t+u+h v+&+J.",
"&+v+w+x+y+z+A+B+C+D+E+F+G+H+I+J+K+L+M+N+O+P+Q+R+S+T+U+V+W+X+v+&+",
"Y+h Z+`+ @.@+@@@#@$@%@&@*@=@-@;@>@,@'@)@!@~@{@]@^@/@(@_@:@<@h Y+",
"X+[@}@|@1@2@3@4@5@6@7@8@9@0@a@b@c@d@e@f@g@h@i@j@k@l@m@n@o@< [@X+",
"p@< q@r@s@t@u@v@w@x@y@z@A@B@C@D@E@F@G@H@I@J@K@L@M@N@O@P@Q@R@< p@",
"< S@T@U@V@W@X@Y@Z@`@ #.#+#@###$#%#&#H@*#=#-#;#>#,#'#)#!#~#{#S@< ",
"]#E ^#/#(#_#:#<#[#}#|#1#2#3#4#5#6#7#8#9#0#a#b#c#d#e#f#g#h#i#E ]#",
"S@5 j#k#l#m#n#o#p#q#r#s#t#u#v#w#x#y#z#A#B#C#D#E#F#G#H#I#J#K#5 S@",
"{#L#M#N#O#P#Q#R#S#T#U#V#W#X#Y#Z#`# $.$+$@$#$$$%$&$*$=$-$;$>$L#{#",
"k ,$'$)$!$~${$]$^$/$($_$:$<$[$}$|$1$2$3$4$5$6$7$8$9$0$a$b$'$,$k ",
"c$d$b$e$f$g$h${$i$^$j$k$l$m$n$o$p$q$r$s$t$u$v$w$x$y$z$A$B$b$d$c$",
"K#'$C$D$E$F$G$H$I$J$K$L$M$N$O$P$Q$R$S$T$U$V$W$X$Y$Z$`$ %.%+%'$K#",
"@%* #%; $%%%&%*%=%-%;%>%,%'%)%!%~%{%]%^%/%(%_%:%<%[%}%|%1%#%* @%",
"@%b$2%- 3%4%5%6%7%8%9%0%a%b%c%d%e%f%g%h%i%j%k%l%m%n%o%p%q%r%s%@%",
",$b$t%$%u%v%w%x%y%z%A%B%C%D%E%F%G%H%I%J%K%L%M%N%O%P%Q%R%S%T%U%V%",
"@%b$t%$%W%X%Y%Z%`% &.&+&@&#&$&%&&&*&=&-&;&>&,&'&)&!&~&{&]&^&/&(&",
"_&:&<&- [&X%}&F |&1&2&3&4&5&6&7&8&9&0&a&b&c&d&e&f&g&h&i&j&k&l&m&",
"n&d$e$; o&v%Y%p&q&r&s&t&u&v&w&x&y&z&A&B&C&D&E&F&G&H&I&J&K&L&M&N&",
"O&P&* <&- u%Q&Y%p&F R&S&T&U&V&W&X&Y&Z&`& *.*+*@*#*$*%*&***=*-*;*",
". >*,*b$<&= o&W%Q&X%'*)*!*~*{*]*^*/*(*_*:*<*[*T$}*|*1*2*3*4*5*6*",
". . 7*8*9*0*t%= $%o&u%a*b*c*d*e*f*g*h*i*j*k*l*y#m*n*o*p*q*r*s*5*"};
