<?xml version="1.0" encoding="UTF-8" standalone="no"?>
<!-- Created with Inkscape (http://www.inkscape.org/) -->
<svg
   xmlns:dc="http://purl.org/dc/elements/1.1/"
   xmlns:cc="http://creativecommons.org/ns#"
   xmlns:rdf="http://www.w3.org/1999/02/22-rdf-syntax-ns#"
   xmlns:svg="http://www.w3.org/2000/svg"
   xmlns="http://www.w3.org/2000/svg"
   xmlns:sodipodi="http://sodipodi.sourceforge.net/DTD/sodipodi-0.dtd"
   xmlns:inkscape="http://www.inkscape.org/namespaces/inkscape"
   width="744.09448819"
   height="1052.3622047"
   id="svg2"
   sodipodi:version="0.32"
   inkscape:version="0.46"
   sodipodi:docname="icon_chest.svg"
   inkscape:output_extension="org.inkscape.output.svg.inkscape">
  <defs
     id="defs4">
    <inkscape:perspective
       sodipodi:type="inkscape:persp3d"
       inkscape:vp_x="0 : 526.18109 : 1"
       inkscape:vp_y="0 : 1000 : 0"
       inkscape:vp_z="744.09448 : 526.18109 : 1"
       inkscape:persp3d-origin="372.04724 : 350.78739 : 1"
       id="perspective10" />
  </defs>
  <sodipodi:namedview
     id="base"
     pagecolor="#ffffff"
     bordercolor="#666666"
     borderopacity="1.0"
     gridtolerance="10000"
     guidetolerance="10"
     objecttolerance="10"
     inkscape:pageopacity="0.0"
     inkscape:pageshadow="2"
     inkscape:zoom="2.8284271"
     inkscape:cx="331.88167"
     inkscape:cy="548.68089"
     inkscape:document-units="px"
     inkscape:current-layer="layer1"
     showgrid="false"
     inkscape:window-width="1600"
     inkscape:window-height="1153"
     inkscape:window-x="-4"
     inkscape:window-y="-4" />
  <metadata
     id="metadata7">
    <rdf:RDF>
      <cc:Work
         rdf:about="">
        <dc:format>image/svg+xml</dc:format>
        <dc:type
           rdf:resource="http://purl.org/dc/dcmitype/StillImage" />
      </cc:Work>
    </rdf:RDF>
  </metadata>
  <g
     inkscape:groupmode="layer"
     id="layer3"
     inkscape:label="Bottom"
     style="display:inline">
    <path
       style="fill:none;fill-rule:evenodd;stroke:#999999;stroke-width:1px;stroke-linecap:butt;stroke-linejoin:miter;stroke-opacity:1;display:inline"
       d="M 198.4477,547.48356 L 275.25134,615.19057 L 425.63101,555.2134 L 334.07479,509.65501 L 198.4477,547.48356 z"
       id="path2389"
       sodipodi:nodetypes="ccccc" />
    <path
       style="fill:none;fill-rule:evenodd;stroke:#999999;stroke-width:1px;stroke-linecap:butt;stroke-linejoin:miter;stroke-opacity:1;display:inline"
       d="M 198.00005,548.33667 L 200.32673,612.92516 L 272.71073,692.8291 L 275.74119,616.01689 L 198.00005,548.33667 z"
       id="path2395"
       sodipodi:nodetypes="ccccc" />
    <path
       style="fill:none;fill-rule:evenodd;stroke:#999999;stroke-width:1px;stroke-linecap:butt;stroke-linejoin:miter;stroke-opacity:1;display:inline"
       d="M 275.7818,615.00674 L 272.75134,693.79864 L 421.65168,614.09811 L 426.04942,555.02957 L 275.7818,615.00674 z"
       id="path2397"
       sodipodi:nodetypes="ccccc" />
    <path
       style="fill:#a05a2c;fill-rule:evenodd;stroke:#000000;stroke-width:1px;stroke-linecap:butt;stroke-linejoin:miter;stroke-opacity:1;display:inline"
       d="M 270.8573,617.53213 L 268.96327,682.81323 L 203.05081,611.21867 L 200.52544,555.40774 L 270.8573,617.53213 z"
       id="path3160"
       sodipodi:nodetypes="ccccc" />
    <path
       style="fill:#a05a2c;fill-opacity:1;fill-rule:evenodd;stroke:#000000;stroke-width:1px;stroke-linecap:butt;stroke-linejoin:miter;stroke-opacity:1;display:inline"
       d="M 279.31733,617.53212 L 276.53941,685.71742 L 418.97092,611.47121 L 423.26406,559.70089 L 279.31733,617.53212 z"
       id="path3162"
       sodipodi:nodetypes="ccccc" />
    <path
       style="fill:#aa8800;fill-rule:evenodd;stroke:#000000;stroke-width:1px;stroke-linecap:butt;stroke-linejoin:miter;stroke-opacity:1;display:inline"
       d="M 344.41327,591.96213 L 344.41327,606.60934 L 370.17216,594.99259 L 370.67724,580.85045 L 344.41327,591.96213 z"
       id="path3178" />
    <path
       style="fill:#ffcc00;fill-rule:evenodd;stroke:#000000;stroke-width:1px;stroke-linecap:butt;stroke-linejoin:miter;stroke-opacity:1;display:inline"
       d="M 350.42352,589.30607 L 350.34955,597.59432 C 350.34955,597.59432 353.20669,598.39789 357.84955,596.61218 C 362.4924,594.82646 364.36741,592.6836 364.36741,592.6836 L 364.56764,583.75503 L 350.42352,589.30607 z"
       id="path3180"
       sodipodi:nodetypes="ccsccc" />
    <path
       style="fill:#554400;fill-rule:evenodd;stroke:#000000;stroke-width:1px;stroke-linecap:butt;stroke-linejoin:miter;stroke-opacity:1;display:inline"
       d="M 356.25099,588.52129 L 356.25099,593.09855 L 358.90264,591.96213 L 358.93422,587.40697 L 356.25099,588.52129 z"
       id="path3190"
       sodipodi:nodetypes="ccccc" />
    <path
       style="fill:#808080;fill-opacity:0.97308535;stroke:#000000;stroke-width:1;stroke-opacity:1;display:inline"
       d="M 236.96734,652.50611 C 217.64859,631.19259 201.63504,613.49115 201.38167,613.16958 C 200.95439,612.62729 200.84011,610.35138 199.80514,581.77292 C 199.19142,564.82633 198.83676,550.37596 198.90242,550.3103 C 199.05241,550.1603 242.66956,588.04645 261.24176,604.19627 L 275.14118,616.28278 L 275.04424,618.087 C 274.99092,619.07932 274.33302,635.75371 273.58224,655.14121 C 272.83145,674.52871 272.18909,690.58624 272.15476,690.82459 C 272.11487,691.10146 259.40803,677.26394 236.96734,652.50611 z M 270.5949,648.96764 L 271.48635,617.29405 L 270.41434,616.3166 C 269.82474,615.77901 253.76109,601.57821 234.71734,584.75926 L 200.09234,554.17936 L 200.02049,555.28529 C 199.98097,555.89355 200.51325,568.79124 201.20334,583.94684 L 202.45805,611.50245 L 233.00604,644.69684 C 249.80743,662.95374 264.8564,679.28829 266.44818,680.99584 L 269.34234,684.10044 L 269.5229,682.37084 C 269.62219,681.41954 270.10459,666.38809 270.5949,648.96764 L 270.5949,648.96764 z"
       id="path3200"
       sodipodi:nodetypes="cssscccssccccccccccccccc" />
    <path
       style="fill:#808080;fill-opacity:0.97308535;stroke:#000000;stroke-width:1;stroke-opacity:1;display:inline"
       d="M 273.47982,691.08926 C 273.50434,687.75504 276.36681,615.53361 276.47847,615.43226 C 276.66572,615.26227 425.28331,555.99694 425.33401,556.07203 C 425.35969,556.11008 424.41561,569.0733 423.23604,584.87919 L 421.09134,613.61717 L 419.71684,614.41627 C 418.96086,614.85578 386.22359,632.39491 346.96734,653.39214 C 307.71109,674.38936 275.11421,691.84304 274.52984,692.17809 L 273.46734,692.78731 L 273.47982,691.08926 z M 347.84689,649.25206 C 387.16206,628.75674 419.37981,611.93707 419.44186,611.87501 C 419.56476,611.75213 423.98516,559.25151 423.89651,558.96777 C 423.85419,558.83228 279.03804,616.86218 278.78362,617.11659 C 278.71403,617.18618 275.96734,683.89186 275.96734,685.51244 C 275.96734,686.06451 276.05676,686.51621 276.16605,686.51621 C 276.27534,686.51621 308.53173,669.74734 347.84689,649.25204 L 347.84689,649.25206 z"
       id="path3202" />
    <path
       style="fill:#7e4722;fill-opacity:1;stroke:#000000;stroke-width:1;stroke-opacity:1;display:inline"
       d="M 251.76612,593.78877 C 210.58569,558.32683 199.08991,548.465 199.86885,547.76335 C 200.29082,547.38324 231.6029,539.43538 267.88529,529.22291 L 333.8533,510.6548 L 378.7025,532.84675 L 423.5516,555.03877 L 350.2014,584.28877 C 309.8586,600.37627 276.36721,613.53877 275.77595,613.53877 C 275.1847,613.53877 264.38026,604.65127 251.7661,593.78877 L 251.76612,593.78877 z"
       id="path3214"
       sodipodi:nodetypes="cscccccscc" />
  </g>
  <g
     inkscape:label="Layer 1"
     inkscape:groupmode="layer"
     id="layer1"
     style="display:inline">
    <path
       style="fill:none;fill-rule:evenodd;stroke:#8b3f00;stroke-width:1px;stroke-linecap:butt;stroke-linejoin:miter;stroke-opacity:1"
       d="M 196.97975,543.2453 L 290.92393,475.56508 L 429.31483,449.30111 L 332.34018,507.88996 L 196.97975,543.2453 z"
       id="path2387"
       sodipodi:nodetypes="ccccc" />
    <path
       sodipodi:nodetypes="cscc"
       id="path2403"
       d="M 290.62806,475.62636 C 290.62806,475.62636 236.73284,424.0473 200.36735,455.36203 C 164.00185,486.67676 197.57148,543.07198 197.57148,543.07198 L 290.62806,475.62636 z"
       style="fill:none;fill-rule:evenodd;stroke:#999999;stroke-width:1px;stroke-linecap:butt;stroke-linejoin:miter;stroke-opacity:1" />
    <path
       style="fill:none;fill-rule:evenodd;stroke:#999999;stroke-width:1px;stroke-linecap:butt;stroke-linejoin:miter;stroke-opacity:1"
       d="M 290.56679,475.57559 L 428.90167,449.36764 C 428.90167,449.36764 416.15312,418.47659 329.30973,430.00669 C 259.49366,439.27609 215.20274,446.82214 215.20274,446.82214 C 215.20274,446.82214 245.50732,434.38342 290.56679,475.57559 z"
       id="path2393"
       sodipodi:nodetypes="ccscc" />
    <path
       style="fill:none;fill-rule:evenodd;stroke:#8b3f00;stroke-width:1px;stroke-linecap:butt;stroke-linejoin:miter;stroke-opacity:1"
       d="M 330.71429,504.50504 C 330.71429,504.50504 317.05357,490.93361 319.10714,469.77289"
       id="path2399"
       sodipodi:nodetypes="cs" />
    <path
       style="fill:#a05a2c;fill-opacity:1;fill-rule:evenodd;stroke:#000000;stroke-width:1px;stroke-linecap:butt;stroke-linejoin:miter;stroke-opacity:1"
       d="M 198.74751,535.16408 L 281.07495,476.07016 C 281.07495,476.07016 228.74095,434.30482 204.05081,456.62472 C 172.48355,485.16153 198.49498,534.659 198.74751,535.16408 z"
       id="path3164"
       sodipodi:nodetypes="ccsc" />
    <path
       style="fill:none;fill-rule:evenodd;stroke:#000000;stroke-width:1px;stroke-linecap:butt;stroke-linejoin:miter;stroke-opacity:1"
       d="M 331.85309,459.83593 C 331.85309,459.83593 321.98615,438.69452 279.55975,436.67421"
       id="path3166"
       sodipodi:nodetypes="cc" />
    <path
       id="path3168"
       d="M 342.18248,458.85282 C 342.18248,458.85282 330.77447,437.2803 288.34807,435.25999"
       style="fill:none;fill-rule:evenodd;stroke:#000000;stroke-width:1px;stroke-linecap:butt;stroke-linejoin:miter;stroke-opacity:1"
       sodipodi:nodetypes="cc" />
    <path
       sodipodi:nodetypes="cc"
       id="path3170"
       d="M 392.2382,450.29504 C 392.2382,450.29504 381.02673,431.29912 338.60033,429.27881"
       style="fill:none;fill-rule:evenodd;stroke:#000000;stroke-width:1px;stroke-linecap:butt;stroke-linejoin:miter;stroke-opacity:1" />
    <path
       style="fill:none;fill-rule:evenodd;stroke:#000000;stroke-width:1px;stroke-linecap:butt;stroke-linejoin:miter;stroke-opacity:1"
       d="M 400.42449,448.83846 C 400.42449,448.83846 390.16451,430.12309 347.73811,428.10278"
       id="path3172"
       sodipodi:nodetypes="cc" />
    <path
       style="fill:none;fill-rule:evenodd;stroke:#000000;stroke-width:1px;stroke-linecap:butt;stroke-linejoin:miter;stroke-opacity:1"
       d="M 284.28571,469.50504 L 425,444.50504"
       id="path3174" />
    <path
       style="fill:#ffcc00;fill-opacity:1;fill-rule:evenodd;stroke:#000000;stroke-width:1px;stroke-linecap:butt;stroke-linejoin:miter;stroke-opacity:1"
       d="M 353.46244,451.11937 L 371.13208,448.13722 L 380.582,462.54615 L 363.63208,466.11936 L 353.46244,451.11937 z"
       id="path3176"
       sodipodi:nodetypes="ccccc" />
    <path
       style="fill:#975529;fill-opacity:0.97308535;stroke:#000000;stroke-width:1;stroke-opacity:1"
       d="M 282.59234,467.95858 C 279.58684,465.51041 276.26056,463.08146 272.18124,460.35607 C 258.89465,451.47931 247.37024,446.83091 233.71734,444.84156 C 232.40122,444.6498 232.5725,444.60518 237.71734,443.7997 C 240.67359,443.33687 251.52984,441.70022 261.84234,440.16269 L 280.59234,437.36719 L 284.21734,437.6628 C 302.38193,439.14407 317.22585,444.8618 326.34833,453.89121 C 327.7375,455.26621 329.44103,457.24778 330.13395,458.29469 C 331.30985,460.07131 331.43065,460.17844 331.94671,459.90226 C 332.49569,459.60844 332.49062,459.59291 331.22944,457.70729 C 324.30529,447.35482 308.90674,439.61169 290.27384,437.11284 C 287.72305,436.77076 287.05795,436.60792 287.39884,436.40896 C 288.67352,435.66502 298.78795,436.60968 305.84234,438.13153 C 318.61731,440.88749 328.91329,445.87271 336.50327,452.97726 C 338.45586,454.80498 341.40491,458.41196 341.15279,458.66409 C 341.07584,458.74106 328.262,461.06653 312.6776,463.83182 C 297.0932,466.59711 284.28609,468.9318 284.21734,469.02002 C 284.14859,469.10824 283.41734,468.63059 282.59234,467.95858 z"
       id="path3192" />
    <path
       style="fill:#975529;fill-opacity:0.97308535;stroke:#000000;stroke-width:1;stroke-opacity:1"
       d="M 341.14794,456.30412 C 333.52804,446.10012 318.1077,438.4563 299.7552,435.78585 C 296.79592,435.35525 295.37733,435.01621 296.53486,435.01621 C 296.75533,435.01621 303.55221,434.11363 311.63903,433.01047 C 331.87311,430.25025 338.23981,429.47563 338.56672,429.73426 C 338.71831,429.8542 340.07984,430.02664 341.59234,430.11749 C 349.93524,430.61856 359.69921,432.38667 366.84234,434.68989 C 372.45734,436.50038 379.41331,439.85721 383.46734,442.71282 C 386.13389,444.5911 391.56699,449.82541 390.96734,449.93838 C 387.21196,450.64582 374.89581,452.76973 374.86424,452.71534 C 374.34586,451.82227 371.58419,447.71344 371.44411,447.62687 C 371.26264,447.5147 353.48201,450.38693 352.76564,450.64413 C 352.54451,450.72352 353.01914,451.61379 354.23444,453.39918 C 355.22196,454.84996 355.98774,456.0731 355.93614,456.11728 C 355.88454,456.16146 353.08609,456.67208 349.71734,457.25199 C 346.34859,457.8319 343.41504,458.35496 343.19836,458.41433 C 342.93256,458.48716 342.26541,457.80057 341.14794,456.30411 L 341.14794,456.30412 z"
       id="path3194" />
    <path
       style="fill:#975529;fill-opacity:0.97308535;stroke:#000000;stroke-width:1;stroke-opacity:1"
       d="M 400.31809,447.56905 C 399.36546,446.11524 395.43201,442.34185 393.09234,440.63738 C 385.90681,435.40268 376.63824,431.7238 365.09234,429.52365 C 363.02984,429.13063 360.58434,428.73021 359.65789,428.63384 C 356.39114,428.29402 358.31194,428.01623 363.91959,428.0175 C 390.21811,428.02346 409.90819,432.77507 421.46734,441.90493 C 423.50739,443.51624 423.90466,443.96536 423.43299,444.12714 C 423.24566,444.19141 418.25484,445.09364 412.34234,446.1321 C 406.42984,447.17055 401.40061,448.06368 401.16629,448.11681 C 400.91261,448.17433 400.56944,447.95273 400.31806,447.56906 L 400.31809,447.56905 z"
       id="path3196" />
    <path
       style="fill:#808080;fill-opacity:0.97308535;stroke:#000000;stroke-width:1;stroke-opacity:1"
       d="M 390.25731,447.02102 C 383.17479,439.4075 371.39356,433.74702 356.46734,430.78608 C 353.39456,430.17653 346.99361,429.26621 345.78031,429.26621 C 345.28231,429.26621 345.00101,429.16399 345.09234,429.01621 C 345.57474,428.23567 358.39234,429.39937 365.69546,430.88676 C 379.84559,433.76864 390.43824,438.81933 397.16121,445.88994 L 399.53894,448.39062 L 397.31564,448.80821 C 396.09281,449.03788 394.52984,449.29449 393.84234,449.37845 L 392.59234,449.53109 L 390.25731,447.02102 z"
       id="path3198" />
    <path
       style="fill:#808080;fill-opacity:0.97308535;stroke:#000000;stroke-width:1;stroke-opacity:1"
       d="M 195.22218,537.20371 C 187.24299,520.73867 183.28345,503.8187 184.22035,490.19056 C 185.10009,477.39401 189.51075,467.07754 197.60755,458.8781 C 206.38451,449.98989 215.7115,446.01621 227.79687,446.01621 C 238.12752,446.01621 248.34368,448.88271 260.43435,455.17381 C 269.09816,459.68182 277.74296,465.47024 285.18321,471.74526 C 290.01184,475.81766 289.64169,475.44123 289.21734,475.84797 C 288.83052,476.21873 279.05212,483.31051 254.34234,501.14103 C 214.6432,529.78784 197.94223,541.76621 197.70025,541.76621 C 197.55339,541.76621 196.43826,539.71309 195.22218,537.20371 L 195.22218,537.20371 z M 240.92681,505.6719 C 263.4991,489.46378 281.96542,476.13253 281.96308,476.0469 C 281.95757,475.84488 275.87358,471.42755 272.35348,469.06976 C 264.10576,463.54537 255.77892,458.96445 247.71534,455.51536 C 232.2289,448.89124 219.16139,447.72527 209.79457,452.13183 C 207.33637,453.28828 205.35029,454.67918 202.90701,456.95537 C 196.30487,463.10601 191.8185,470.73964 189.58503,479.62292 C 185.75006,494.87592 188.6475,515.07538 197.338,533.67253 L 198.4587,536.07078 L 199.17249,535.606 C 199.56508,535.35037 218.35452,521.88002 240.92681,505.6719 z"
       id="path3204" />
    <path
       style="fill:#808080;fill-opacity:0.97308535;stroke:#000000;stroke-width:1;stroke-opacity:1"
       d="M 288.059,472.53649 C 285.90186,470.68012 285.36752,470.10084 285.68399,469.96177 C 286.51071,469.59846 356.80754,457.25716 356.97539,457.44586 C 357.76546,458.33406 359.72216,461.60754 359.55454,461.76067 C 359.43784,461.86728 353.54859,463.04825 346.46734,464.38505 C 309.69412,471.32707 291.67214,474.73886 291.21734,474.84459 C 291.01109,474.89254 289.58983,473.85389 288.05899,472.53649 L 288.059,472.53649 z"
       id="path3206" />
    <path
       style="fill:#7e4722;fill-opacity:1;stroke:#000000;stroke-width:1;stroke-opacity:1"
       d="M 377.11224,456.11718 C 376.32564,454.93521 375.71814,453.94054 375.76221,453.90681 C 375.80631,453.87308 386.92296,451.88192 400.46594,449.48201 L 425.08954,445.11855 L 426.09094,446.29594 C 427.33311,447.75644 428.08894,449.01621 427.72301,449.01621 C 427.57309,449.01621 416.48476,451.09746 403.08224,453.64121 C 389.67974,456.18496 378.67544,458.26621 378.62824,458.26621 C 378.58101,458.26621 377.89881,457.29915 377.11224,456.11718 L 377.11224,456.11718 z"
       id="path3210" />
    <path
       style="fill:#7e4722;fill-opacity:1;stroke:#000000;stroke-width:1;stroke-opacity:1"
       d="M 201.78332,540.91032 C 202.92929,539.7791 290.33506,476.72064 291.34738,476.29478 C 291.77024,476.1169 297.68468,474.9232 304.49058,473.64214 C 311.29648,472.36108 317.19288,471.233 317.59368,471.1353 C 318.29341,470.96475 318.32427,471.10909 318.36885,474.76039 C 318.47794,483.69542 320.96914,491.70332 326.05331,499.46186 C 328.70524,503.50874 330.29725,505.23533 330.86629,504.68168 C 331.22775,504.32999 331.0987,503.98476 330.20554,502.91391 C 325.7344,497.55326 322.29792,490.60649 320.71488,483.72873 C 319.64235,479.06893 319.14296,471.12168 319.90439,470.83039 C 320.17724,470.726 329.46913,468.91818 340.55303,466.813 L 360.70557,462.98537 L 361.90691,464.78339 C 362.56767,465.77229 363.15856,466.64194 363.21997,466.71593 C 363.43108,466.97022 381.38844,463.06661 381.38844,462.76643 C 381.38844,462.60128 380.90351,461.76132 380.31081,460.89985 C 379.71808,460.03839 379.40367,459.33355 379.61209,459.33355 C 379.82051,459.33355 390.10647,457.41429 402.46981,455.06854 C 414.83318,452.72278 424.99883,450.85375 425.06021,450.91512 C 425.12155,450.97649 404.21894,463.68494 378.6099,479.15612 L 332.048,507.28552 L 267.35759,524.16571 C 231.77788,533.4498 202.34901,541.13317 201.9601,541.23985 C 201.33298,541.41188 201.31298,541.3746 201.78332,540.91032 z"
       id="path3212" />
    <path
       style="fill:#808080;fill-opacity:0.97647059;stroke:#808080;stroke-width:1;stroke-opacity:0.97647059"
       d="M 332.7964,459.4114 C 332.7964,459.07317 332.00111,457.80302 330.64116,455.9693 C 329.48921,454.41604 326.0019,450.92786 324.2339,449.56046 C 316.20386,443.34987 306.04631,439.24504 293.0464,436.95708 C 290.85045,436.57059 297.52096,437.27504 300.7339,437.76892 C 305.91311,438.56505 311.53931,439.96402 316.03215,441.57287 C 324.20507,444.49954 331.606,448.91014 336.4852,453.76194 C 338.07705,455.34484 340.42846,458.12264 340.28267,458.248 C 340.25584,458.27106 338.6589,458.58149 336.7339,458.93783 C 334.8089,459.29417 333.13546,459.61511 333.01515,459.65101 C 332.84876,459.70066 332.7964,459.6433 332.7964,459.4114 L 332.7964,459.4114 z"
       id="path3231" />
    <path
       style="fill:#808080;fill-opacity:0.97647059;stroke:#808080;stroke-width:1;stroke-opacity:0.97647059"
       d="M 377.72574,456.02717 C 377.11793,455.13459 376.64667,454.37828 376.67847,454.34647 C 376.77556,454.24938 424.26912,445.77504 424.71617,445.77504 C 424.83058,445.77504 425.1053,445.98101 425.32664,446.23274 C 425.87678,446.85845 427.04157,448.4021 427.04157,448.50549 C 427.04157,448.55177 422.58375,449.42625 417.13532,450.44878 C 411.68688,451.47133 400.87282,453.50951 393.10407,454.97809 C 385.33532,456.44667 378.94572,457.64865 378.90496,457.64914 C 378.86419,457.64963 378.33356,456.91975 377.72574,456.02717 L 377.72574,456.02717 z"
       id="path3233" />
  </g>
</svg>
