<?xml version="1.0" encoding="UTF-8" standalone="no"?>
<!-- Created with Inkscape (http://www.inkscape.org/) -->
<svg
   xmlns:dc="http://purl.org/dc/elements/1.1/"
   xmlns:cc="http://creativecommons.org/ns#"
   xmlns:rdf="http://www.w3.org/1999/02/22-rdf-syntax-ns#"
   xmlns:svg="http://www.w3.org/2000/svg"
   xmlns="http://www.w3.org/2000/svg"
   xmlns:xlink="http://www.w3.org/1999/xlink"
   xmlns:sodipodi="http://sodipodi.sourceforge.net/DTD/sodipodi-0.dtd"
   xmlns:inkscape="http://www.inkscape.org/namespaces/inkscape"
   width="744.09448819"
   height="1052.3622047"
   id="svg11971"
   sodipodi:version="0.32"
   inkscape:version="0.46"
   sodipodi:docname="items.svg"
   inkscape:output_extension="org.inkscape.output.svg.inkscape">
  <defs
     id="defs11973">
    <linearGradient
       inkscape:collect="always"
       id="linearGradient3278">
      <stop
         style="stop-color:#af2727;stop-opacity:1;"
         offset="0"
         id="stop3280" />
      <stop
         style="stop-color:#af2727;stop-opacity:0;"
         offset="1"
         id="stop3282" />
    </linearGradient>
    <linearGradient
       inkscape:collect="always"
       id="linearGradient3270">
      <stop
         style="stop-color:#2d0808;stop-opacity:1;"
         offset="0"
         id="stop3272" />
      <stop
         style="stop-color:#2d0808;stop-opacity:0;"
         offset="1"
         id="stop3274" />
    </linearGradient>
    <linearGradient
       id="linearGradient4813">
      <stop
         style="stop-color:#c97338;stop-opacity:1;"
         offset="0"
         id="stop4815" />
      <stop
         style="stop-color:#4d2a14;stop-opacity:1;"
         offset="1"
         id="stop4817" />
    </linearGradient>
    <linearGradient
       id="linearGradient12628">
      <stop
         style="stop-color:#aa4400;stop-opacity:1;"
         offset="0"
         id="stop12630" />
      <stop
         style="stop-color:#4b1e00;stop-opacity:1;"
         offset="1"
         id="stop12632" />
    </linearGradient>
    <linearGradient
       id="linearGradient12549">
      <stop
         style="stop-color:#808080;stop-opacity:1;"
         offset="0"
         id="stop12551" />
      <stop
         style="stop-color:#373737;stop-opacity:1;"
         offset="1"
         id="stop12553" />
    </linearGradient>
    <linearGradient
       id="linearGradient12541">
      <stop
         style="stop-color:#cccccc;stop-opacity:1;"
         offset="0"
         id="stop12543" />
      <stop
         style="stop-color:#494949;stop-opacity:1;"
         offset="1"
         id="stop12545" />
    </linearGradient>
    <linearGradient
       id="linearGradient12533">
      <stop
         style="stop-color:#aa4400;stop-opacity:1;"
         offset="0"
         id="stop12535" />
      <stop
         style="stop-color:#612600;stop-opacity:0.93103451;"
         offset="1"
         id="stop12537" />
    </linearGradient>
    <inkscape:perspective
       sodipodi:type="inkscape:persp3d"
       inkscape:vp_x="0 : 526.18109 : 1"
       inkscape:vp_y="0 : 1000 : 0"
       inkscape:vp_z="744.09448 : 526.18109 : 1"
       inkscape:persp3d-origin="372.04724 : 350.78739 : 1"
       id="perspective11979" />
    <linearGradient
       inkscape:collect="always"
       xlink:href="#linearGradient12533"
       id="linearGradient12539"
       x1="30"
       y1="104.86218"
       x2="45"
       y2="104.86218"
       gradientUnits="userSpaceOnUse"
       gradientTransform="matrix(0.6428571,0,0,1,13.392857,0)" />
    <linearGradient
       inkscape:collect="always"
       xlink:href="#linearGradient12541"
       id="linearGradient12547"
       x1="30"
       y1="67.362183"
       x2="45"
       y2="67.005043"
       gradientUnits="userSpaceOnUse"
       gradientTransform="matrix(0.6190476,0,0,1,14.285714,0)" />
    <linearGradient
       inkscape:collect="always"
       xlink:href="#linearGradient12549"
       id="linearGradient12555"
       x1="19.523888"
       y1="80.972647"
       x2="41.856464"
       y2="80.972647"
       gradientUnits="userSpaceOnUse" />
    <linearGradient
       inkscape:collect="always"
       xlink:href="#linearGradient12628"
       id="linearGradient12634"
       x1="20"
       y1="89.862183"
       x2="55"
       y2="89.862183"
       gradientUnits="userSpaceOnUse" />
    <linearGradient
       inkscape:collect="always"
       xlink:href="#linearGradient12541"
       id="linearGradient4667"
       x1="130.92682"
       y1="76.768181"
       x2="133.72333"
       y2="79.041023"
       gradientUnits="userSpaceOnUse"
       gradientTransform="matrix(1.0346534,0,0,0.9771324,-3.9570433,2.2623048)" />
    <linearGradient
       inkscape:collect="always"
       xlink:href="#linearGradient4813"
       id="linearGradient4819"
       x1="109.5237"
       y1="101.31248"
       x2="112.55047"
       y2="103.96413"
       gradientUnits="userSpaceOnUse"
       gradientTransform="matrix(0.7540372,0,0,0.7508716,27.295849,25.58647)" />
    <linearGradient
       inkscape:collect="always"
       xlink:href="#linearGradient4813"
       id="linearGradient4827"
       x1="115.34539"
       y1="97.134392"
       x2="113.87138"
       y2="98.830811"
       gradientUnits="userSpaceOnUse" />
    <linearGradient
       inkscape:collect="always"
       xlink:href="#linearGradient12541"
       id="linearGradient4855"
       gradientUnits="userSpaceOnUse"
       gradientTransform="matrix(1.0346534,0,0,0.9771324,-3.9570433,2.2623048)"
       x1="130.92682"
       y1="76.768181"
       x2="133.72333"
       y2="79.041023" />
    <linearGradient
       inkscape:collect="always"
       xlink:href="#linearGradient4813"
       id="linearGradient4857"
       gradientUnits="userSpaceOnUse"
       gradientTransform="matrix(0.7540372,0,0,0.7508716,27.295849,25.58647)"
       x1="109.5237"
       y1="101.31248"
       x2="112.55047"
       y2="103.96413" />
    <linearGradient
       inkscape:collect="always"
       xlink:href="#linearGradient4813"
       id="linearGradient4859"
       gradientUnits="userSpaceOnUse"
       x1="115.34539"
       y1="97.134392"
       x2="113.87138"
       y2="98.830811" />
    <linearGradient
       inkscape:collect="always"
       xlink:href="#linearGradient4813"
       id="linearGradient4891"
       x1="153.89999"
       y1="100.86218"
       x2="156.10001"
       y2="100.86218"
       gradientUnits="userSpaceOnUse"
       gradientTransform="matrix(1,0,0,0.553911,-9,38.96573)" />
    <linearGradient
       inkscape:collect="always"
       xlink:href="#linearGradient4813"
       id="linearGradient4895"
       gradientUnits="userSpaceOnUse"
       x1="153.89999"
       y1="100.86218"
       x2="156.10001"
       y2="100.86218"
       gradientTransform="matrix(0,1,-0.5918556,-2.8356474e-8,214.68339,-66.637807)" />
    <linearGradient
       inkscape:collect="always"
       xlink:href="#linearGradient4813"
       id="linearGradient4905"
       gradientUnits="userSpaceOnUse"
       gradientTransform="matrix(1,0,0,0.553911,9,38.971309)"
       x1="153.89999"
       y1="100.86218"
       x2="156.10001"
       y2="100.86218" />
    <linearGradient
       inkscape:collect="always"
       xlink:href="#linearGradient4813"
       id="linearGradient2446"
       gradientUnits="userSpaceOnUse"
       gradientTransform="matrix(3.3375039,-0.154314,0.1542372,3.3391664,-326.98661,-134.70366)"
       x1="115.34539"
       y1="97.134392"
       x2="113.87138"
       y2="98.830811" />
    <linearGradient
       inkscape:collect="always"
       xlink:href="#linearGradient4813"
       id="linearGradient2449"
       gradientUnits="userSpaceOnUse"
       gradientTransform="matrix(3.4083475,-0.1575896,0.1568499,3.3957294,-339.20163,-135.40835)"
       x1="109.5237"
       y1="101.31248"
       x2="112.55047"
       y2="103.96413" />
    <linearGradient
       inkscape:collect="always"
       xlink:href="#linearGradient12541"
       id="linearGradient2453"
       gradientUnits="userSpaceOnUse"
       gradientTransform="matrix(4.2115642,-0.1947274,0.18381,3.9794059,-430.27999,-193.33566)"
       x1="130.92682"
       y1="76.768181"
       x2="133.72333"
       y2="79.041023" />
    <radialGradient
       inkscape:collect="always"
       xlink:href="#linearGradient3270"
       id="radialGradient3276"
       cx="180.00287"
       cy="78.63195"
       fx="180.00287"
       fy="78.63195"
       r="8.8571405"
       gradientTransform="matrix(1,0,0,0.7105994,0,22.756135)"
       gradientUnits="userSpaceOnUse" />
    <radialGradient
       inkscape:collect="always"
       xlink:href="#linearGradient3278"
       id="radialGradient3284"
       cx="180.00287"
       cy="78.63195"
       fx="180.00287"
       fy="78.63195"
       r="8.8571405"
       gradientTransform="matrix(1,0,0,0.7105994,0,22.756135)"
       gradientUnits="userSpaceOnUse" />
    <radialGradient
       inkscape:collect="always"
       xlink:href="#linearGradient4813"
       id="radialGradient3286"
       cx="133.55479"
       cy="111.46822"
       fx="133.55479"
       fy="111.46822"
       r="9.9611063"
       gradientUnits="userSpaceOnUse"
       gradientTransform="matrix(1,4.3104993e-6,-4.3105185e-6,1.0000045,4.3357579e-4,-1.0257246e-3)" />
    <radialGradient
       inkscape:collect="always"
       xlink:href="#linearGradient4813"
       id="radialGradient3292"
       cx="152.48676"
       cy="102.68816"
       fx="152.48676"
       fy="102.68816"
       r="10.050019"
       gradientTransform="matrix(4.0076042,2.5984951e-6,-8.2653352e-6,12.760156,-302.74298,-1160.2206)"
       gradientUnits="userSpaceOnUse" />
    <radialGradient
       inkscape:collect="always"
       xlink:href="#linearGradient4813"
       id="radialGradient3299"
       gradientUnits="userSpaceOnUse"
       gradientTransform="matrix(1,4.3104993e-6,-4.3105185e-6,1.0000045,4.3357579e-4,-1.0257246e-3)"
       cx="133.55479"
       cy="111.46822"
       fx="133.55479"
       fy="111.46822"
       r="9.9611063" />
    <radialGradient
       inkscape:collect="always"
       xlink:href="#linearGradient12549"
       id="radialGradient3515"
       cx="192.4375"
       cy="100.54968"
       fx="192.4375"
       fy="100.54968"
       r="2.1500001"
       gradientUnits="userSpaceOnUse" />
    <radialGradient
       inkscape:collect="always"
       xlink:href="#linearGradient12549"
       id="radialGradient3523"
       cx="192.6203"
       cy="99.999832"
       fx="192.6203"
       fy="99.999832"
       r="0.65823305"
       gradientUnits="userSpaceOnUse" />
    <linearGradient
       inkscape:collect="always"
       xlink:href="#linearGradient4813"
       id="linearGradient3228"
       x1="142.6377"
       y1="51.529873"
       x2="143.92995"
       y2="52.524242"
       gradientUnits="userSpaceOnUse"
       gradientTransform="matrix(4.524956,0,0,4.52721,-43.392632,-69.192997)" />
    <linearGradient
       inkscape:collect="always"
       xlink:href="#linearGradient12541"
       id="linearGradient3236"
       x1="147.41562"
       y1="45.330933"
       x2="148.22501"
       y2="45.987183"
       gradientUnits="userSpaceOnUse"
       gradientTransform="matrix(4.524956,0,0,4.52721,-43.392632,-69.192997)" />
    <linearGradient
       inkscape:collect="always"
       xlink:href="#linearGradient12541"
       id="linearGradient3246"
       x1="141.28125"
       y1="54.432491"
       x2="141.67969"
       y2="54.573116"
       gradientUnits="userSpaceOnUse" />
    <linearGradient
       inkscape:collect="always"
       xlink:href="#linearGradient4813"
       id="linearGradient3237"
       x1="444.5325"
       y1="367.7774"
       x2="450.2254"
       y2="372.2774"
       gradientUnits="userSpaceOnUse"
       gradientTransform="translate(-46.000002,6.5000003)" />
    <linearGradient
       inkscape:collect="always"
       xlink:href="#linearGradient12541"
       id="linearGradient3245"
       x1="447.12503"
       y1="327.61215"
       x2="436.25003"
       y2="341.86215"
       gradientUnits="userSpaceOnUse"
       gradientTransform="translate(-42.818022,-7.2885827)" />
  </defs>
  <sodipodi:namedview
     id="base"
     pagecolor="#ffffff"
     bordercolor="#666666"
     borderopacity="1.0"
     gridtolerance="10000"
     guidetolerance="10"
     objecttolerance="10"
     inkscape:pageopacity="0.0"
     inkscape:pageshadow="2"
     inkscape:zoom="11.313708"
     inkscape:cx="515.61605"
     inkscape:cy="691.44536"
     inkscape:document-units="px"
     inkscape:current-layer="layer1"
     showgrid="true"
     inkscape:window-width="1280"
     inkscape:window-height="977"
     inkscape:window-x="127"
     inkscape:window-y="45"
     inkscape:snap-global="false"
     showguides="true"
     inkscape:guide-bbox="true">
    <inkscape:grid
       type="xygrid"
       id="grid11985" />
  </sodipodi:namedview>
  <metadata
     id="metadata11976">
    <rdf:RDF>
      <cc:Work
         rdf:about="">
        <dc:format>image/svg+xml</dc:format>
        <dc:type
           rdf:resource="http://purl.org/dc/dcmitype/StillImage" />
      </cc:Work>
    </rdf:RDF>
  </metadata>
  <g
     inkscape:label="Layer 1"
     inkscape:groupmode="layer"
     id="layer1">
    <path
       style="fill:url(#linearGradient2453);fill-opacity:1;fill-rule:evenodd;stroke:#000000;stroke-width:1;stroke-linecap:butt;stroke-linejoin:miter;stroke-miterlimit:4;stroke-dasharray:none;stroke-opacity:1"
       d="M 68.601936,171.09609 L 176.55177,33.708364 L 198.41336,19.629465 L 190.56683,42.808033 L 77.047171,177.63253 L 68.601936,171.09609 z"
       id="path2401"
       sodipodi:nodetypes="cccccc" />
    <path
       style="fill:#666666;fill-rule:evenodd;stroke:#000000;stroke-width:1;stroke-linecap:butt;stroke-linejoin:miter;stroke-miterlimit:4;stroke-dasharray:none;stroke-opacity:1"
       d="M 73.129057,174.06754 L 197.75983,20.61531"
       id="path2405"
       sodipodi:nodetypes="cc" />
    <path
       style="fill:url(#linearGradient2449);fill-opacity:1;fill-rule:evenodd;stroke:#000000;stroke-width:1;stroke-linecap:butt;stroke-linejoin:miter;stroke-miterlimit:4;stroke-dasharray:none;stroke-opacity:1"
       d="M 65.261321,174.04734 L 36.370115,208.80536 C 29.976215,215.63347 39.699084,224.75477 46.252129,218.07115 L 74.492606,182.43183 L 65.261321,174.04734 z"
       id="path2403"
       sodipodi:nodetypes="ccccc" />
    <path
       sodipodi:nodetypes="ccccc"
       id="path2415"
       d="M 48.553568,162.17484 L 87.561679,193.89902 C 92.043987,197.26762 97.522667,191.44512 93.007983,187.37686 L 54.100336,155.68322 C 49.303203,154.71306 46.294171,157.79195 48.553568,162.17484 z"
       style="fill:url(#linearGradient2446);fill-opacity:1;fill-rule:evenodd;stroke:#000000;stroke-width:1;stroke-linecap:butt;stroke-linejoin:miter;stroke-miterlimit:4;stroke-dasharray:none;stroke-opacity:1" />
    <path
       style="fill:none;fill-rule:evenodd;stroke:#000000;stroke-width:1;stroke-linecap:butt;stroke-linejoin:miter;stroke-miterlimit:4;stroke-dasharray:none;stroke-opacity:1"
       d="M 38.611878,206.67372 L 48.069922,215.30051"
       id="path4871" />
    <path
       id="path4873"
       d="M 42.684631,201.76324 L 52.142677,210.39001"
       style="fill:none;fill-rule:evenodd;stroke:#000000;stroke-width:1;stroke-linecap:butt;stroke-linejoin:miter;stroke-miterlimit:4;stroke-dasharray:none;stroke-opacity:1" />
    <path
       style="fill:none;fill-rule:evenodd;stroke:#000000;stroke-width:1;stroke-linecap:butt;stroke-linejoin:miter;stroke-miterlimit:4;stroke-dasharray:none;stroke-opacity:1"
       d="M 46.757383,196.85244 L 56.215427,205.47921"
       id="path4875" />
    <path
       id="path4877"
       d="M 50.830118,191.94195 L 60.288164,200.56873"
       style="fill:none;fill-rule:evenodd;stroke:#000000;stroke-width:1;stroke-linecap:butt;stroke-linejoin:miter;stroke-miterlimit:4;stroke-dasharray:none;stroke-opacity:1" />
    <path
       style="fill:none;fill-rule:evenodd;stroke:#000000;stroke-width:1;stroke-linecap:butt;stroke-linejoin:miter;stroke-miterlimit:4;stroke-dasharray:none;stroke-opacity:1"
       d="M 54.90285,187.03142 L 64.360896,195.6582"
       id="path4879" />
    <path
       id="path4881"
       d="M 58.975564,182.12062 L 68.43361,190.74741"
       style="fill:none;fill-rule:evenodd;stroke:#000000;stroke-width:1;stroke-linecap:butt;stroke-linejoin:miter;stroke-miterlimit:4;stroke-dasharray:none;stroke-opacity:1" />
    <path
       style="fill:url(#radialGradient3292);fill-opacity:1;fill-rule:evenodd;stroke:#000000;stroke-width:1;stroke-linecap:butt;stroke-linejoin:miter;stroke-miterlimit:4;stroke-dasharray:none;stroke-opacity:1"
       d="M 263.33938,89.135128 L 352.93352,89.135128 L 353.38601,157.02417 C 353.38601,157.02417 353.8385,211.05833 308.58894,211.05833 C 263.33938,211.05833 263.33938,153.97605 263.33938,153.97605 L 263.33938,89.135128 z"
       id="path4831"
       sodipodi:nodetypes="cccccc" />
    <path
       style="fill:none;fill-rule:evenodd;stroke:#000000;stroke-width:1;stroke-linecap:butt;stroke-linejoin:miter;stroke-miterlimit:4;stroke-dasharray:none;stroke-opacity:1"
       d="M 271.9368,98.170433 L 344.33609,98.170433 L 344.33609,157.02417 C 344.33609,157.02417 344.33609,202.29627 308.13645,202.29627 C 271.9368,202.29627 271.9368,157.02417 271.9368,157.02417 L 271.9368,98.170433"
       id="path4907"
       sodipodi:nodetypes="cccccc" />
    <g
       id="g3294"
       transform="matrix(4.524956,0,0,4.5272101,-392.83178,-301.98927)"
       style="stroke-width:0.2209416;stroke-miterlimit:4;stroke-dasharray:none">
      <path
         transform="translate(58.424698,-11.048543)"
         d="M 143.3659,111.46822 A 9.8111067,9.8111067 0 1 1 123.74369,111.46822 A 9.8111067,9.8111067 0 1 1 143.3659,111.46822 z"
         sodipodi:ry="9.8111067"
         sodipodi:rx="9.8111067"
         sodipodi:cy="111.46822"
         sodipodi:cx="133.55479"
         id="path2460"
         style="fill:url(#radialGradient3299);fill-opacity:1;stroke:#000000;stroke-width:0.2209416;stroke-miterlimit:4;stroke-dasharray:none;stroke-opacity:1"
         sodipodi:type="arc" />
      <path
         transform="translate(-0.4580077,-0.130002)"
         d="M 194.4375,100.54968 A 2,2 0 1 1 190.4375,100.54968 A 2,2 0 1 1 194.4375,100.54968 z"
         sodipodi:ry="2"
         sodipodi:rx="2"
         sodipodi:cy="100.54968"
         sodipodi:cx="192.4375"
         id="path3246"
         style="fill:url(#radialGradient3515);fill-opacity:1;stroke:#282828;stroke-width:0.2209416;stroke-miterlimit:4;stroke-dasharray:none;stroke-opacity:1"
         sodipodi:type="arc" />
      <path
         transform="translate(-0.640808,0.4198484)"
         d="M 193.12853,99.999832 A 0.50823301,0.50823301 0 1 1 192.11207,99.999832 A 0.50823301,0.50823301 0 1 1 193.12853,99.999832 z"
         sodipodi:ry="0.50823301"
         sodipodi:rx="0.50823301"
         sodipodi:cy="99.999832"
         sodipodi:cx="192.6203"
         id="path3248"
         style="fill:url(#radialGradient3523);fill-opacity:1;stroke:#292929;stroke-width:0.2209416;stroke-miterlimit:4;stroke-dasharray:none;stroke-opacity:1"
         sodipodi:type="arc" />
    </g>
    <path
       style="fill:url(#linearGradient3228);fill-opacity:1;fill-rule:evenodd;stroke:#000000;stroke-width:1;stroke-linecap:butt;stroke-linejoin:miter;stroke-miterlimit:4;stroke-dasharray:none;stroke-opacity:1"
       d="M 590.84054,177.79315 C 591.64046,175.7924 611.33107,151.3387 611.33107,151.3387 L 616.62332,155.15021 L 597.33268,182.55061 L 590.84054,177.79315 z"
       id="path2440"
       sodipodi:nodetypes="ccccc" />
    <path
       style="fill:url(#linearGradient3236);fill-opacity:1;fill-rule:evenodd;stroke:#000000;stroke-width:1;stroke-linecap:butt;stroke-linejoin:miter;stroke-miterlimit:4;stroke-dasharray:none;stroke-opacity:1"
       d="M 611.45334,151.45046 L 635.91638,119.33557 L 636.482,125.56048 L 616.26111,154.70439 L 611.45334,151.45046 z"
       id="path3212"
       sodipodi:nodetypes="ccccc" />
    <path
       sodipodi:type="arc"
       style="fill:url(#linearGradient3246);fill-opacity:1;stroke:#000000;stroke-width:0.2209416;stroke-miterlimit:4;stroke-dasharray:none;stroke-opacity:1"
       id="path3238"
       sodipodi:cx="141.48438"
       sodipodi:cy="54.487183"
       sodipodi:rx="0.328125"
       sodipodi:ry="0.3125"
       d="M 141.8125,54.487183 A 0.328125,0.3125 0 1 1 141.15625,54.487183 A 0.328125,0.3125 0 1 1 141.8125,54.487183 z"
       transform="matrix(4.524956,0,0,4.5272101,-43.710794,-69.511318)" />
    <path
       style="fill:#ffe6d5;fill-opacity:1;stroke:#2b1100;stroke-width:1;stroke-miterlimit:4;stroke-dasharray:none;stroke-opacity:1"
       d="M 126.60514,372.91238 C 124.20542,391.71452 118.15886,409.22618 111.03467,415.48898 C 99.091331,425.98821 91.036864,431.96313 79.182475,431.96313 C 65.928246,431.96313 61.722525,424.8148 49.729942,415.68904 C 42.520783,410.20323 30.559968,388.71339 30.559968,372.91238 C 30.559968,341.31038 52.074052,315.66236 78.582555,315.66236 C 105.09101,315.66236 126.60514,341.31038 126.60514,372.91238 z"
       id="path2446"
       sodipodi:nodetypes="csssssc" />
    <path
       sodipodi:type="arc"
       style="fill:#f9f9f9;fill-opacity:1;stroke:#000000;stroke-width:0.2209416;stroke-miterlimit:4;stroke-dasharray:none;stroke-opacity:1"
       id="path2448"
       sodipodi:cx="233.25685"
       sodipodi:cy="84.244614"
       sodipodi:rx="2.563262"
       sodipodi:ry="2.563262"
       d="M 235.82011,84.244614 A 2.563262,2.563262 0 1 1 230.69359,84.244614 A 2.563262,2.563262 0 1 1 235.82011,84.244614 z"
       transform="matrix(4.524956,0,0,4.5272101,-993.50671,-7.726495)" />
    <path
       sodipodi:type="arc"
       style="fill:#000000;fill-opacity:1;stroke:#000000;stroke-width:0.2209416;stroke-miterlimit:4;stroke-dasharray:none;stroke-opacity:1"
       id="path2454"
       sodipodi:cx="233.56621"
       sodipodi:cy="85.040108"
       sodipodi:rx="0.92807764"
       sodipodi:ry="0.79549515"
       d="M 234.49429,85.040108 A 0.92807764,0.79549515 0 1 1 232.63813,85.040108 A 0.92807764,0.79549515 0 1 1 234.49429,85.040108 z"
       transform="matrix(4.524956,0,0,4.5272101,-992.67841,-9.561509)" />
    <g
       transform="matrix(4.524956,0,0,4.5272101,-962.18492,-19.345141)"
       id="g3303"
       style="stroke-width:0.2209416;stroke-miterlimit:4;stroke-dasharray:none">
      <path
         sodipodi:type="arc"
         style="fill:#f9f9f9;fill-opacity:1;stroke:#000000;stroke-width:0.2209416;stroke-miterlimit:4;stroke-dasharray:none;stroke-opacity:1"
         id="path3305"
         sodipodi:cx="233.25685"
         sodipodi:cy="84.244614"
         sodipodi:rx="2.563262"
         sodipodi:ry="2.563262"
         d="M 235.82011,84.244614 A 2.563262,2.563262 0 1 1 230.69359,84.244614 A 2.563262,2.563262 0 1 1 235.82011,84.244614 z"
         transform="translate(0.7071068,2.5632621)" />
      <path
         sodipodi:type="arc"
         style="fill:#000000;fill-opacity:1;stroke:#000000;stroke-width:0.2209416;stroke-miterlimit:4;stroke-dasharray:none;stroke-opacity:1"
         id="path3307"
         sodipodi:cx="233.56621"
         sodipodi:cy="85.040108"
         sodipodi:rx="0.92807764"
         sodipodi:ry="0.79549515"
         d="M 234.49429,85.040108 A 0.92807764,0.79549515 0 1 1 232.63813,85.040108 A 0.92807764,0.79549515 0 1 1 234.49429,85.040108 z"
         transform="translate(1.51651e-2,2.1579321)" />
    </g>
    <path
       style="fill:#803300;fill-opacity:1;fill-rule:evenodd;stroke:#000000;stroke-width:1;stroke-linecap:butt;stroke-linejoin:miter;stroke-miterlimit:4;stroke-dasharray:none;stroke-opacity:1"
       d="M 41.249588,343.11521 C 44.60267,339.88621 46.939132,344.79419 49.248623,349.9178 C 51.525446,342.78421 51.542368,333.80069 59.247464,331.11063 C 57.68269,342.27983 64.485779,345.07704 68.846344,350.31795 C 71.596521,342.02394 73.712074,333.31906 85.244467,330.71048 C 83.138326,339.0601 90.811927,340.07131 96.843106,342.31491 C 97.235556,335.61939 97.352526,328.84872 103.44235,323.70782 C 105.23233,339.39614 122.23865,371.19313 135.43858,382.73032 C 131.73345,362.85607 134.23114,322.57405 117.2407,302.6998 C 108.95257,298.26614 97.117092,295.80417 79.245144,296.69752 C 50.398325,301.55184 50.389004,310.46383 41.449545,318.30575 C 24.863274,342.46202 24.462001,362.57002 22.251785,383.13047 C 23.063065,394.06734 27.617705,396.01568 30.850787,401.13735 C 31.130836,378.34317 34.5703,358.97343 41.249588,343.11521 z"
       id="path3356"
       sodipodi:nodetypes="cccccccccccccc" />
    <path
       style="fill:none;fill-rule:evenodd;stroke:#000000;stroke-width:1;stroke-linecap:butt;stroke-linejoin:miter;stroke-miterlimit:4;stroke-dasharray:none;stroke-opacity:1"
       d="M 69.014084,396.9616 C 69.718393,400.22404 71.185247,398.72046 73.019846,399.51634 C 74.84897,400.30988 73.635015,403.30843 78.22694,403.25618 C 82.745876,403.20558 81.390109,399.84375 84.211148,399.43825 C 86.266835,399.14281 87.9865,399.38043 87.963604,397.20313"
       id="path3358"
       sodipodi:nodetypes="csssc" />
    <path
       style="fill:none;fill-rule:evenodd;stroke:#000000;stroke-width:1;stroke-linecap:butt;stroke-linejoin:miter;stroke-miterlimit:4;stroke-dasharray:none;stroke-opacity:1"
       d="M 62.696928,414.08581 C 63.237118,416.0455 63.739885,417.74941 69.836178,417.17415 C 74.57521,416.70744 84.108387,416.62894 88.064013,417.12411 C 92.520415,417.68201 93.500837,416.40329 94.793256,414.28592"
       id="path3371"
       sodipodi:nodetypes="cccc" />
    <path
       style="fill:#a05a2c;fill-rule:evenodd;stroke:#000000;stroke-width:1px;stroke-linecap:butt;stroke-linejoin:miter;stroke-opacity:1;fill-opacity:1"
       d="M 220.64423,299.53089 L 244.41397,299.55992 C 249.57067,311.32104 271.10156,312.30847 275.86676,299.61798 L 299.45972,299.64701 L 325.22317,329.01402 L 303.58105,350.02316 L 292.74221,338.89144 L 292.74221,416.67319 L 228.74904,416.48753 L 230.16326,336.06301 L 219.32442,349.10895 L 198.3036,329.03915 L 220.64423,299.53089 z"
       id="path3239"
       sodipodi:nodetypes="ccccccccccccc" />
    <path
       style="fill:#da9d76;fill-opacity:1;stroke:#000000;stroke-width:1;stroke-miterlimit:4;stroke-dasharray:none;stroke-opacity:1"
       d="M 259.09404,308.15812 C 254.17954,307.68412 250.1382,305.89532 247.35344,302.96142 C 246.99712,302.58601 246.72103,302.26341 246.73992,302.24452 C 246.7588,302.22564 247.41399,302.4278 248.19589,302.69377 C 252.84097,304.27386 257.60468,304.9683 262.36441,304.75921 C 266.16299,304.59235 269.52059,303.89174 273.09275,302.5206 C 273.42708,302.39228 273.72034,302.30699 273.74442,302.33107 C 273.84281,302.42946 272.51692,303.87837 271.73357,304.52847 C 269.28557,306.56011 266.16034,307.78866 262.58538,308.12471 C 261.68313,308.20952 259.81255,308.22742 259.09404,308.15812 z"
       id="path3261" />
    <path
       style="fill:url(#linearGradient3237);fill-opacity:1;fill-rule:evenodd;stroke:#000000;stroke-width:1px;stroke-linecap:butt;stroke-linejoin:miter;stroke-opacity:1"
       d="M 376.28921,414.45564 L 431.4754,345.15245 L 426.39392,340.09915 L 370.28249,409.6309 L 376.28921,414.45564 z"
       id="path2457"
       sodipodi:nodetypes="ccccc" />
    <path
       style="fill:url(#linearGradient3245);fill-opacity:1;fill-rule:evenodd;stroke:#000000;stroke-width:1px;stroke-linecap:butt;stroke-linejoin:miter;stroke-opacity:1"
       d="M 397.92465,335.80698 C 397.35751,335.511 401.35708,322.8261 409.42222,319.19522 L 431.94501,345.88418 C 431.94501,345.88418 428.61067,349.2407 428.61067,349.2407 L 397.92465,335.80698 z"
       id="path2459"
       sodipodi:nodetypes="ccssc" />
    <path
       style="fill:#f4eed7;fill-rule:evenodd;stroke:#000000;stroke-width:1px;stroke-linecap:butt;stroke-linejoin:miter;stroke-opacity:1"
       d="M 489.44428,345.34315 L 514.69428,345.34315 C 511.92642,354.76743 508.55869,359.60223 503.70533,365.3321 C 509.85778,370.45226 512.757,377.35095 514.69428,385.34315 L 489.44428,385.34315 C 492.06546,377.41733 494.79378,370.44885 500.26339,365.3763 C 495.48812,359.60851 491.77761,354.6765 489.44428,345.34315 z"
       id="path2461"
       sodipodi:nodetypes="ccccccc" />
    <path
       style="fill:none;fill-rule:evenodd;stroke:#000000;stroke-width:1px;stroke-linecap:butt;stroke-linejoin:miter;stroke-opacity:1"
       d="M 489.88181,347.15562 L 514.13181,347.15562"
       id="path2463"
       sodipodi:nodetypes="cc" />
    <path
       style="fill:none;fill-rule:evenodd;stroke:#000000;stroke-width:1px;stroke-linecap:butt;stroke-linejoin:miter;stroke-opacity:1"
       d="M 489.94431,383.56723 L 514.31931,383.56723"
       id="path2465"
       sodipodi:nodetypes="cc" />
    <path
       style="fill:none;fill-rule:evenodd;stroke:#000000;stroke-width:1px;stroke-linecap:butt;stroke-linejoin:miter;stroke-opacity:1"
       d="M 490.88181,350.34312 L 512.75681,350.34312"
       id="path2467"
       sodipodi:nodetypes="cc" />
    <path
       style="fill:none;fill-rule:evenodd;stroke:#000000;stroke-width:1px;stroke-linecap:butt;stroke-linejoin:miter;stroke-opacity:1"
       d="M 491.00681,380.15562 L 513.44431,380.15562"
       id="path2469"
       sodipodi:nodetypes="cc" />
  </g>
</svg>
